<svg xmlns="http://www.w3.org/2000/svg" xmlns:xlink="http://www.w3.org/1999/xlink" width="840" height="363.94"><rect width="840" height="363.94" rx="5" ry="5" class="a"/><svg y="0%" x="0%"><circle cx="20" cy="20" r="6" fill="#ff5f58"/><circle cx="40" cy="20" r="6" fill="#ffbd2e"/><circle cx="60" cy="20" r="6" fill="#18c132"/></svg><svg height="303.94" viewBox="0 0 80 30.394" width="800" x="15" xmlns="http://www.w3.org/2000/svg" xmlns:xlink="http://www.w3.org/1999/xlink" y="50"><style>@keyframes m{0%{transform:translateX(0)}1.8%{transform:translateX(-80px)}7.4%{transform:translateX(-160px)}7.5%{transform:translateX(-240px)}8.7%{transform:translateX(-320px)}9.4%{transform:translateX(-400px)}9.8%{transform:translateX(-480px)}10.6%{transform:translateX(-560px)}29.2%{transform:translateX(-640px)}33.5%{transform:translateX(-720px)}35.4%{transform:translateX(-800px)}36.1%{transform:translateX(-880px)}36.6%{transform:translateX(-960px)}50.2%{transform:translateX(-1040px)}59.3%{transform:translateX(-1120px)}62%{transform:translateX(-1280px)}62.7%{transform:translateX(-1520px)}63.4%{transform:translateX(-1680px)}64.1%{transform:translateX(-1840px)}64.8%{transform:translateX(-2000px)}65.5%{transform:translateX(-2160px)}66.2%{transform:translateX(-2320px)}66.8%{transform:translateX(-2560px)}67.5%{transform:translateX(-2720px)}68.2%{transform:translateX(-2880px)}68.9%{transform:translateX(-3040px)}69.6%{transform:translateX(-3200px)}70.3%{transform:translateX(-3360px)}70.9%{transform:translateX(-3520px)}71.6%{transform:translateX(-3680px)}72.3%{transform:translateX(-3840px)}73%{transform:translateX(-4000px)}73.7%{transform:translateX(-4160px)}73.8%{transform:translateX(-4320px)}74.2%{transform:translateX(-4480px)}74.8%{transform:translateX(-4640px)}75.5%{transform:translateX(-4800px)}76.2%{transform:translateX(-4960px)}76.8%{transform:translateX(-5280px)}78.5%{transform:translateX(-5440px)}80.3%{transform:translateX(-5600px)}82%{transform:translateX(-5760px)}83.7%{transform:translateX(-5840px)}85.4%{transform:translateX(-5920px)}87.1%{transform:translateX(-6080px)}88.8%{transform:translateX(-6480px)}88.9%{transform:translateX(-6560px)}to{transform:translateX(-6640px)}}.a{fill:#282d35}.f,.g,.h,.i{white-space:pre}.f{fill:#6f7783;font-weight:700}.g,.h,.i{fill:#d290e4}.h,.i{fill:#b9c0cb}.i{fill:#66c2cd}</style><g font-family="Monaco,Consolas,Menlo,'Bitstream Vera Sans Mono','Powerline Symbols',monospace" font-size="1.67"><defs><symbol id="1"><text y="1.67" class="f">~</text><text x="2.004" y="1.67" class="f">//</text><text x="4.008" y="1.67" class="g">&gt;</text></symbol><symbol id="2"><text y="1.67" class="f">~</text><text x="2.004" y="1.67" class="f">//</text><text x="4.008" y="1.67" class="g">&gt;</text><text x="6.012" y="1.67" class="h">jinqr</text></symbol><symbol id="3"><text y="1.67" class="f">~</text><text x="2.004" y="1.67" class="f">//</text><text x="4.008" y="1.67" class="g">&gt;</text><text x="6.012" y="1.67" class="h">jinqr</text><text x="12.024" y="1.67" class="h">https://youtu.be/PRdcZSuCpNo</text></symbol><symbol id="4"><text y="1.67" class="f">~</text><text x="2.004" y="1.67" class="f">//</text><text x="4.008" y="1.67" class="g">&gt;</text><text x="6.012" y="1.67" class="h">jinqr</text><text x="12.024" y="1.67" class="h">https://youtu.be/PRdcZSuCpNo</text><text x="41.082" y="1.67" class="h">-s</text></symbol><symbol id="5"><text y="1.67" class="f">~</text><text x="2.004" y="1.67" class="f">//</text><text x="4.008" y="1.67" class="g">&gt;</text><text x="6.012" y="1.67" class="h">jinqr</text><text x="12.024" y="1.67" class="h">https://youtu.be/PRdcZSuCpNo</text><text x="41.082" y="1.67" class="h">-s</text><text x="44.088" y="1.67" class="h">tiny-itag-249</text></symbol><symbol id="6"><text y="1.67" class="i">⠋</text><text x="2.004" y="1.67" class="h">jomiel:</text><text x="10.02" y="1.67" class="h">awaiting</text><text x="19.038" y="1.67" class="h">for</text><text x="23.046" y="1.67" class="h">a</text><text x="25.05" y="1.67" class="h">response...</text></symbol><symbol id="7"><text y="1.67" class="i">⠙</text><text x="2.004" y="1.67" class="h">jomiel:</text><text x="10.02" y="1.67" class="h">awaiting</text><text x="19.038" y="1.67" class="h">for</text><text x="23.046" y="1.67" class="h">a</text><text x="25.05" y="1.67" class="h">response...</text></symbol><symbol id="8"><text y="1.67" class="i">⠹</text><text x="2.004" y="1.67" class="h">jomiel:</text><text x="10.02" y="1.67" class="h">awaiting</text><text x="19.038" y="1.67" class="h">for</text><text x="23.046" y="1.67" class="h">a</text><text x="25.05" y="1.67" class="h">response...</text></symbol><symbol id="9"><text y="1.67" class="i">⠸</text><text x="2.004" y="1.67" class="h">jomiel:</text><text x="10.02" y="1.67" class="h">awaiting</text><text x="19.038" y="1.67" class="h">for</text><text x="23.046" y="1.67" class="h">a</text><text x="25.05" y="1.67" class="h">response...</text></symbol><symbol id="10"><text y="1.67" class="i">⠼</text><text x="2.004" y="1.67" class="h">jomiel:</text><text x="10.02" y="1.67" class="h">awaiting</text><text x="19.038" y="1.67" class="h">for</text><text x="23.046" y="1.67" class="h">a</text><text x="25.05" y="1.67" class="h">response...</text></symbol><symbol id="11"><text y="1.67" class="i">⠴</text><text x="2.004" y="1.67" class="h">jomiel:</text><text x="10.02" y="1.67" class="h">awaiting</text><text x="19.038" y="1.67" class="h">for</text><text x="23.046" y="1.67" class="h">a</text><text x="25.05" y="1.67" class="h">response...</text></symbol><symbol id="12"><text y="1.67" class="i">⠦</text><text x="2.004" y="1.67" class="h">jomiel:</text><text x="10.02" y="1.67" class="h">awaiting</text><text x="19.038" y="1.67" class="h">for</text><text x="23.046" y="1.67" class="h">a</text><text x="25.05" y="1.67" class="h">response...</text></symbol><symbol id="13"><text y="1.67" class="i">⠧</text><text x="2.004" y="1.67" class="h">jomiel:</text><text x="10.02" y="1.67" class="h">awaiting</text><text x="19.038" y="1.67" class="h">for</text><text x="23.046" y="1.67" class="h">a</text><text x="25.05" y="1.67" class="h">response...</text></symbol><symbol id="14"><text y="1.67" class="h">|</text><text x="28.056" y="1.67" class="h">0%</text><text x="31.062" y="1.67" class="h">||</text><text x="34.068" y="1.67" class="h">0/0 | 0s</text><text x="43.086" y="1.67" class="h">|</text><text x="45.09" y="1.67" class="h">0/s</text></symbol><symbol id="15"><text y="1.67" class="h">|</text><text x="2.004" y="1.67" class="h">■■■■■</text><text x="28.056" y="1.67" class="h">21%</text><text x="32.064" y="1.67" class="h">||</text><text x="35.07" y="1.67" class="h">311.3</text><text x="41.082" y="1.67" class="h">kB/1.5</text><text x="48.096" y="1.67" class="h">MB | 1s</text><text x="56.112" y="1.67" class="h">|</text><text x="58.116" y="1.67" class="h">3.18</text><text x="63.126" y="1.67" class="h">Mbit/s</text></symbol><symbol id="16"><text y="1.67" class="h">|</text><text x="2.004" y="1.67" class="h">■■■■■■■■■■■</text><text x="28.056" y="1.67" class="h">42%</text><text x="32.064" y="1.67" class="h">||</text><text x="35.07" y="1.67" class="h">622.6</text><text x="41.082" y="1.67" class="h">kB/1.5</text><text x="48.096" y="1.67" class="h">MB | 1s</text><text x="56.112" y="1.67" class="h">|</text><text x="58.116" y="1.67" class="h">2.8</text><text x="62.124" y="1.67" class="h">Mbit/s</text></symbol><symbol id="17"><text y="1.67" class="h">|</text><text x="2.004" y="1.67" class="h">■■■■■■■■■■■■■■■■■■■■</text><text x="28.056" y="1.67" class="h">81%</text><text x="32.064" y="1.67" class="h">||</text><text x="35.07" y="1.67" class="h">1.2</text><text x="39.078" y="1.67" class="h">MB/1.5</text><text x="46.092" y="1.67" class="h">MB | 1s</text><text x="54.108" y="1.67" class="h">|</text><text x="56.112" y="1.67" class="h">2.6</text><text x="60.12" y="1.67" class="h">Mbit/s</text></symbol><symbol id="18"><text y="1.67" class="h">|</text><text x="2.004" y="1.67" class="h">■■■■■■■■■■■■■■■■■■■■■■■■■</text><text x="28.056" y="1.67" class="h">100%</text><text x="33.066" y="1.67" class="h">||</text><text x="36.072" y="1.67" class="h">1.5</text><text x="40.08" y="1.67" class="h">MB/1.5</text><text x="47.094" y="1.67" class="h">MB | 0s</text><text x="55.11" y="1.67" class="h">|</text><text x="57.114" y="1.67" class="h">2.32</text><text x="62.124" y="1.67" class="h">Mbit/s</text></symbol><symbol id="19"><text y="1.67" class="h">16:36:40</text><text x="9.018" y="1.67" style="white-space:pre" fill="#a8cc8c">INFO</text><text x="14.028" y="1.67" class="h">-</text><text x="16.032" y="1.67" class="h">download</text><text x="25.05" y="1.67" class="h">complete</text></symbol><symbol id="a"><path fill="transparent" d="M0 0h80v14H0z"/></symbol><symbol id="b"><path fill="#6f7683" d="M0 0h1.102v2.171H0z"/></symbol></defs><path class="a" d="M0 0h80v30.394H0z"/><g style="animation-duration:11.718361999999999s;animation-iteration-count:infinite;animation-name:m;animation-timing-function:steps(1,end)"><svg width="6720"><svg><use xlink:href="#a"/><use xlink:href="#b" x="-.004"/></svg><svg x="80"><use xlink:href="#a"/><use xlink:href="#b" x="5.996"/><use xlink:href="#1"/></svg><svg x="160"><use xlink:href="#a"/><use xlink:href="#b" x="6.996"/><text y="1.67" class="f">~</text><text x="2.004" y="1.67" class="f">//</text><text x="4.008" y="1.67" class="g">&gt;</text><text x="6.012" y="1.67" class="h">j</text></svg><svg x="240"><use xlink:href="#a"/><use xlink:href="#b" x="7.996"/><text y="1.67" class="f">~</text><text x="2.004" y="1.67" class="f">//</text><text x="4.008" y="1.67" class="g">&gt;</text><text x="6.012" y="1.67" class="h">ji</text></svg><svg x="320"><use xlink:href="#a"/><use xlink:href="#b" x="8.996"/><text y="1.67" class="f">~</text><text x="2.004" y="1.67" class="f">//</text><text x="4.008" y="1.67" class="g">&gt;</text><text x="6.012" y="1.67" class="h">jin</text></svg><svg x="400"><use xlink:href="#a"/><use xlink:href="#b" x="9.996"/><text y="1.67" class="f">~</text><text x="2.004" y="1.67" class="f">//</text><text x="4.008" y="1.67" class="g">&gt;</text><text x="6.012" y="1.67" class="h">jinq</text></svg><svg x="480"><use xlink:href="#a"/><use xlink:href="#b" x="10.996"/><use xlink:href="#2"/></svg><svg x="560"><use xlink:href="#a"/><use xlink:href="#b" x="11.996"/><use xlink:href="#2"/></svg><svg x="640"><use xlink:href="#a"/><use xlink:href="#b" x="39.996"/><use xlink:href="#3"/></svg><svg x="720"><use xlink:href="#a"/><use xlink:href="#b" x="40.996"/><use xlink:href="#3"/></svg><svg x="800"><use xlink:href="#a"/><use xlink:href="#b" x="41.996"/><text y="1.67" class="f">~</text><text x="2.004" y="1.67" class="f">//</text><text x="4.008" y="1.67" class="g">&gt;</text><text x="6.012" y="1.67" class="h">jinqr</text><text x="12.024" y="1.67" class="h">https://youtu.be/PRdcZSuCpNo</text><text x="41.082" y="1.67" class="h">-</text></svg><svg x="880"><use xlink:href="#a"/><use xlink:href="#b" x="42.996"/><use xlink:href="#4"/></svg><svg x="960"><use xlink:href="#a"/><use xlink:href="#b" x="43.996"/><use xlink:href="#4"/></svg><svg x="1040"><use xlink:href="#a"/><use xlink:href="#b" x="56.996"/><use xlink:href="#5"/></svg><svg x="1120"><use xlink:href="#a"/><use xlink:href="#b" x="-.004" y="2.146"/><use xlink:href="#5"/></svg><svg x="1200"><use xlink:href="#a"/><use xlink:href="#5"/></svg><svg x="1280"><use xlink:href="#a"/><use xlink:href="#5"/><use xlink:href="#6" y="2.171"/></svg><svg x="1360"><use xlink:href="#a"/><use xlink:href="#5"/></svg><svg x="1440"><use xlink:href="#a"/><use xlink:href="#5"/></svg><svg x="1520"><use xlink:href="#a"/><use xlink:href="#5"/><use xlink:href="#7" y="2.171"/></svg><svg x="1600"><use xlink:href="#a"/><use xlink:href="#5"/></svg><svg x="1680"><use xlink:href="#a"/><use xlink:href="#5"/><use xlink:href="#8" y="2.171"/></svg><svg x="1760"><use xlink:href="#a"/><use xlink:href="#5"/></svg><svg x="1840"><use xlink:href="#a"/><use xlink:href="#5"/><use xlink:href="#9" y="2.171"/></svg><svg x="1920"><use xlink:href="#a"/><use xlink:href="#5"/></svg><svg x="2000"><use xlink:href="#a"/><use xlink:href="#5"/><use xlink:href="#10" y="2.171"/></svg><svg x="2080"><use xlink:href="#a"/><use xlink:href="#5"/></svg><svg x="2160"><use xlink:href="#a"/><use xlink:href="#5"/><use xlink:href="#11" y="2.171"/></svg><svg x="2240"><use xlink:href="#a"/><use xlink:href="#5"/></svg><svg x="2320"><use xlink:href="#a"/><use xlink:href="#5"/><use xlink:href="#12" y="2.171"/></svg><svg x="2400"><use xlink:href="#a"/><use xlink:href="#5"/></svg><svg x="2480"><use xlink:href="#a"/><use xlink:href="#5"/></svg><svg x="2560"><use xlink:href="#a"/><use xlink:href="#5"/><use xlink:href="#13" y="2.171"/></svg><svg x="2640"><use xlink:href="#a"/><use xlink:href="#5"/></svg><svg x="2720"><use xlink:href="#a"/><use xlink:href="#5"/><text y="3.841" class="i">⠇</text><text x="2.004" y="3.841" class="h">jomiel:</text><text x="10.02" y="3.841" class="h">awaiting</text><text x="19.038" y="3.841" class="h">for</text><text x="23.046" y="3.841" class="h">a</text><text x="25.05" y="3.841" class="h">response...</text></svg><svg x="2800"><use xlink:href="#a"/><use xlink:href="#5"/></svg><svg x="2880"><use xlink:href="#a"/><use xlink:href="#5"/><text y="3.841" class="i">⠏</text><text x="2.004" y="3.841" class="h">jomiel:</text><text x="10.02" y="3.841" class="h">awaiting</text><text x="19.038" y="3.841" class="h">for</text><text x="23.046" y="3.841" class="h">a</text><text x="25.05" y="3.841" class="h">response...</text></svg><svg x="2960"><use xlink:href="#a"/><use xlink:href="#5"/></svg><svg x="3040"><use xlink:href="#a"/><use xlink:href="#5"/><use xlink:href="#6" y="2.171"/></svg><svg x="3120"><use xlink:href="#a"/><use xlink:href="#5"/></svg><svg x="3200"><use xlink:href="#a"/><use xlink:href="#5"/><use xlink:href="#7" y="2.171"/></svg><svg x="3280"><use xlink:href="#a"/><use xlink:href="#5"/></svg><svg x="3360"><use xlink:href="#a"/><use xlink:href="#5"/><use xlink:href="#8" y="2.171"/></svg><svg x="3440"><use xlink:href="#a"/><use xlink:href="#5"/></svg><svg x="3520"><use xlink:href="#a"/><use xlink:href="#5"/><use xlink:href="#9" y="2.171"/></svg><svg x="3600"><use xlink:href="#a"/><use xlink:href="#5"/></svg><svg x="3680"><use xlink:href="#a"/><use xlink:href="#5"/><use xlink:href="#10" y="2.171"/></svg><svg x="3760"><use xlink:href="#a"/><use xlink:href="#5"/></svg><svg x="3840"><use xlink:href="#a"/><use xlink:href="#5"/><use xlink:href="#11" y="2.171"/></svg><svg x="3920"><use xlink:href="#a"/><use xlink:href="#5"/></svg><svg x="4000"><use xlink:href="#a"/><use xlink:href="#5"/><use xlink:href="#12" y="2.171"/></svg><svg x="4080"><use xlink:href="#a"/><use xlink:href="#5"/></svg><svg x="4160"><use xlink:href="#a"/><use xlink:href="#5"/><use xlink:href="#13" y="2.171"/></svg><svg x="4240"><use xlink:href="#a"/><use xlink:href="#5"/></svg><svg x="4320"><use xlink:href="#a"/><use xlink:href="#b" x="-.004" y="2.146"/><use xlink:href="#5"/></svg><svg x="4400"><use xlink:href="#a"/><use xlink:href="#5"/></svg><svg x="4480"><use xlink:href="#a"/><use xlink:href="#5"/><text y="3.841" class="i">⠋</text></svg><svg x="4560"><use xlink:href="#a"/><use xlink:href="#5"/></svg><svg x="4640"><use xlink:href="#a"/><use xlink:href="#5"/><text y="3.841" class="i">⠙</text><text x="2.004" y="3.841" class="i">upload</text><text x="8.016" y="3.841" class="h">:</text><text x="10.02" y="3.841" class="h">0%</text></svg><svg x="4720"><use xlink:href="#a"/><use xlink:href="#5"/></svg><svg x="4800"><use xlink:href="#a"/><use xlink:href="#5"/><text y="3.841" class="i">⠹</text><text x="2.004" y="3.841" class="i">upload</text><text x="8.016" y="3.841" class="h">:</text><text x="10.02" y="3.841" class="h">0%</text></svg><svg x="4880"><use xlink:href="#a"/><use xlink:href="#5"/></svg><svg x="4960"><use xlink:href="#a"/><use xlink:href="#5"/><text y="3.841" class="i">⠸</text><text x="2.004" y="3.841" class="i">upload</text><text x="8.016" y="3.841" class="h">:</text><text x="10.02" y="3.841" class="h">100%</text></svg><svg x="5040"><use xlink:href="#a"/><use xlink:href="#b" x="-.004" y="2.146"/><use xlink:href="#5"/></svg><svg x="5120"><use xlink:href="#a"/><use xlink:href="#5"/></svg><svg x="5200"><use xlink:href="#a"/><use xlink:href="#5"/></svg><svg x="5280"><use xlink:href="#a"/><use xlink:href="#5"/><use xlink:href="#14" y="2.171"/></svg><svg x="5360"><use xlink:href="#a"/><use xlink:href="#5"/><use xlink:href="#14" y="2.171"/></svg><svg x="5440"><use xlink:href="#a"/><use xlink:href="#5"/><use xlink:href="#15" y="2.171"/></svg><svg x="5520"><use xlink:href="#a"/><use xlink:href="#5"/><use xlink:href="#15" y="2.171"/></svg><svg x="5600"><use xlink:href="#a"/><use xlink:href="#5"/><text y="3.841" class="h">|</text><text x="2.004" y="3.841" class="h">■■■■■■</text><text x="28.056" y="3.841" class="h">25%</text><text x="32.064" y="3.841" class="h">||</text><text x="35.07" y="3.841" class="h">376.8</text><text x="41.082" y="3.841" class="h">kB/1.5</text><text x="48.096" y="3.841" class="h">MB | 1s</text><text x="56.112" y="3.841" class="h">|</text><text x="58.116" y="3.841" class="h">3.1</text><text x="62.124" y="3.841" class="h">Mbit/s</text></svg><svg x="5680"><use xlink:href="#a"/><use xlink:href="#5"/><use xlink:href="#16" y="2.171"/></svg><svg x="5760"><use xlink:href="#a"/><use xlink:href="#5"/><use xlink:href="#16" y="2.171"/></svg><svg x="5840"><use xlink:href="#a"/><use xlink:href="#5"/><text y="3.841" class="h">|</text><text x="2.004" y="3.841" class="h">■■■■■■■■■■■■■■</text><text x="28.056" y="3.841" class="h">56%</text><text x="32.064" y="3.841" class="h">||</text><text x="35.07" y="3.841" class="h">819.2</text><text x="41.082" y="3.841" class="h">kB/1.5</text><text x="48.096" y="3.841" class="h">MB | 1s</text><text x="56.112" y="3.841" class="h">|</text><text x="58.116" y="3.841" class="h">2.67</text><text x="63.126" y="3.841" class="h">Mbit/s</text></svg><svg x="5920"><use xlink:href="#a"/><use xlink:href="#5"/><use xlink:href="#17" y="2.171"/></svg><svg x="6000"><use xlink:href="#a"/><use xlink:href="#5"/><use xlink:href="#17" y="2.171"/></svg><svg x="6080"><use xlink:href="#a"/><use xlink:href="#5"/><text y="3.841" class="h">|</text><text x="2.004" y="3.841" class="h">■■■■■■■■■■■■■■■■■■■■■■■■■</text><text x="28.056" y="3.841" class="h">98%</text><text x="32.064" y="3.841" class="h">||</text><text x="35.07" y="3.841" class="h">1.4</text><text x="39.078" y="3.841" class="h">MB/1.5</text><text x="46.092" y="3.841" class="h">MB | 1s</text><text x="54.108" y="3.841" class="h">|</text><text x="56.112" y="3.841" class="h">2.53</text><text x="61.122" y="3.841" class="h">Mbit/s</text></svg><svg x="6160"><use xlink:href="#a"/><use xlink:href="#5"/><use xlink:href="#18" y="2.171"/></svg><svg x="6240"><use xlink:href="#a"/><use xlink:href="#b" x="-.004" y="2.146"/><use xlink:href="#5"/><use xlink:href="#18" y="2.171"/></svg><svg x="6320"><use xlink:href="#a"/><use xlink:href="#b" x="-.004" y="4.317"/><use xlink:href="#5"/><use xlink:href="#18" y="2.171"/></svg><svg x="6400"><use xlink:href="#a"/><use xlink:href="#b" x="-.004" y="6.488"/><use xlink:href="#5"/><use xlink:href="#18" y="2.171"/><use xlink:href="#19" y="4.342"/></svg><svg x="6480"><use xlink:href="#a"/><use xlink:href="#b" x="-.004" y="6.488"/><use xlink:href="#5"/><use xlink:href="#18" y="2.171"/><use xlink:href="#19" y="4.342"/></svg><svg x="6560"><use xlink:href="#a"/><use xlink:href="#b" x="5.996" y="6.488"/><use xlink:href="#5"/><use xlink:href="#18" y="2.171"/><use xlink:href="#19" y="4.342"/><use xlink:href="#1" y="6.513"/></svg><svg x="6640"><use xlink:href="#a"/><use xlink:href="#b" x="-.004" y="8.659"/><use xlink:href="#5"/><use xlink:href="#18" y="2.171"/><use xlink:href="#19" y="4.342"/><text y="8.183" class="f">~</text><text x="2.004" y="8.183" class="f">//</text><text x="4.008" y="8.183" class="g">&gt;</text><text x="6.012" y="8.183" class="h">exit</text></svg></svg></g></g></svg></svg>