<svg xmlns="http://www.w3.org/2000/svg" xmlns:xlink="http://www.w3.org/1999/xlink" width="840" height="363.94"><rect width="840" height="363.94" rx="5" ry="5" class="a"/><svg y="0%" x="0%"><circle cx="20" cy="20" r="6" fill="#ff5f58"/><circle cx="40" cy="20" r="6" fill="#ffbd2e"/><circle cx="60" cy="20" r="6" fill="#18c132"/></svg><svg height="303.94" viewBox="0 0 80 30.394" width="800" x="15" xmlns="http://www.w3.org/2000/svg" xmlns:xlink="http://www.w3.org/1999/xlink" y="50"><style>@keyframes m{0%{transform:translateX(0)}1.5%{transform:translateX(-80px)}4.2%{transform:translateX(-160px)}4.5%{transform:translateX(-240px)}5.2%{transform:translateX(-320px)}5.7%{transform:translateX(-400px)}6.1%{transform:translateX(-480px)}7.1%{transform:translateX(-560px)}11.7%{transform:translateX(-640px)}13.3%{transform:translateX(-720px)}15.6%{transform:translateX(-800px)}16.3%{transform:translateX(-880px)}16.6%{transform:translateX(-960px)}25.6%{transform:translateX(-1040px)}30.6%{transform:translateX(-1120px)}32.9%{transform:translateX(-1360px)}33.5%{transform:translateX(-1600px)}34%{transform:translateX(-1760px)}34.6%{transform:translateX(-1920px)}35.2%{transform:translateX(-2160px)}35.7%{transform:translateX(-2400px)}36.3%{transform:translateX(-2560px)}36.9%{transform:translateX(-2800px)}37.4%{transform:translateX(-2960px)}38%{transform:translateX(-3200px)}38.5%{transform:translateX(-3360px)}38.6%{transform:translateX(-3440px)}39.1%{transform:translateX(-3600px)}39.7%{transform:translateX(-3760px)}40.2%{transform:translateX(-3920px)}40.8%{transform:translateX(-4080px)}41.4%{transform:translateX(-4160px)}41.9%{transform:translateX(-4240px)}42.5%{transform:translateX(-4400px)}43%{transform:translateX(-4560px)}43.6%{transform:translateX(-4720px)}44.2%{transform:translateX(-4880px)}44.7%{transform:translateX(-5040px)}45.3%{transform:translateX(-5200px)}45.9%{transform:translateX(-5360px)}46.4%{transform:translateX(-5520px)}47%{transform:translateX(-5680px)}47.5%{transform:translateX(-5840px)}48.1%{transform:translateX(-6000px)}48.7%{transform:translateX(-6160px)}49.2%{transform:translateX(-6320px)}49.8%{transform:translateX(-6480px)}50.4%{transform:translateX(-6560px)}50.9%{transform:translateX(-6640px)}51.5%{transform:translateX(-6800px)}52%{transform:translateX(-6960px)}52.6%{transform:translateX(-7120px)}53.2%{transform:translateX(-7200px)}53.7%{transform:translateX(-7360px)}54.3%{transform:translateX(-7520px)}54.9%{transform:translateX(-7600px)}55.4%{transform:translateX(-7680px)}56%{transform:translateX(-7760px)}56.5%{transform:translateX(-7920px)}57.1%{transform:translateX(-8080px)}57.7%{transform:translateX(-8240px)}58.2%{transform:translateX(-8400px)}58.8%{transform:translateX(-8560px)}59.4%{transform:translateX(-8720px)}59.9%{transform:translateX(-8880px)}60.5%{transform:translateX(-9040px)}61%{transform:translateX(-9120px)}61.6%{transform:translateX(-9200px)}62.2%{transform:translateX(-9280px)}62.6%{transform:translateX(-9440px)}63%{transform:translateX(-9840px)}63.1%{transform:translateX(-10080px)}63.6%{transform:translateX(-10240px)}64.2%{transform:translateX(-10320px)}64.8%{transform:translateX(-10480px)}65.3%{transform:translateX(-10560px)}65.9%{transform:translateX(-10640px)}66.4%{transform:translateX(-10720px)}67%{transform:translateX(-10880px)}67.6%{transform:translateX(-10960px)}68.1%{transform:translateX(-11040px)}68.7%{transform:translateX(-11200px)}69.3%{transform:translateX(-11280px)}69.8%{transform:translateX(-11360px)}70.4%{transform:translateX(-11440px)}70.9%{transform:translateX(-11520px)}71.5%{transform:translateX(-11680px)}72.1%{transform:translateX(-11840px)}72.6%{transform:translateX(-12000px)}73.2%{transform:translateX(-12160px)}73.8%{transform:translateX(-12320px)}74.2%{transform:translateX(-12640px)}74.3%{transform:translateX(-12880px)}75.7%{transform:translateX(-12960px)}77.1%{transform:translateX(-13040px)}79.9%{transform:translateX(-13120px)}82.7%{transform:translateX(-13200px)}84.1%{transform:translateX(-13360px)}85.5%{transform:translateX(-13440px)}90%{transform:translateX(-13680px)}90.1%{transform:translateX(-13840px)}90.2%{transform:translateX(-13920px)}to{transform:translateX(-14000px)}}.a{fill:#282d35}.f{fill:#6f7783;font-weight:700;white-space:pre}.g,.h,.i,.j{fill:#d290e4;white-space:pre}.h,.i,.j{fill:#b9c0cb}.i,.j{fill:#66c2cd}.j{fill:#a8cc8c}</style><g font-family="Monaco,Consolas,Menlo,'Bitstream Vera Sans Mono','Powerline Symbols',monospace" font-size="1.67"><defs><symbol id="1"><text y="1.67" class="f">~</text><text x="2.004" y="1.67" class="f">//</text><text x="4.008" y="1.67" class="g">&gt;</text></symbol><symbol id="2"><text y="1.67" class="f">~</text><text x="2.004" y="1.67" class="f">//</text><text x="4.008" y="1.67" class="g">&gt;</text><text x="6.012" y="1.67" class="h">jinqr</text></symbol><symbol id="3"><text y="1.67" class="f">~</text><text x="2.004" y="1.67" class="f">//</text><text x="4.008" y="1.67" class="g">&gt;</text><text x="6.012" y="1.67" class="h">jinqr</text><text x="12.024" y="1.67" class="h">https://youtu.be/XQMVOoPZLYs</text></symbol><symbol id="4"><text y="1.67" class="f">~</text><text x="2.004" y="1.67" class="f">//</text><text x="4.008" y="1.67" class="g">&gt;</text><text x="6.012" y="1.67" class="h">jinqr</text><text x="12.024" y="1.67" class="h">https://youtu.be/XQMVOoPZLYs</text><text x="41.082" y="1.67" class="h">-s</text></symbol><symbol id="5"><text y="1.67" class="f">~</text><text x="2.004" y="1.67" class="f">//</text><text x="4.008" y="1.67" class="g">&gt;</text><text x="6.012" y="1.67" class="h">jinqr</text><text x="12.024" y="1.67" class="h">https://youtu.be/XQMVOoPZLYs</text><text x="41.082" y="1.67" class="h">-s</text><text x="44.088" y="1.67" class="h">144p-itag-133</text></symbol><symbol id="6"><text y="1.67" class="i">⠋</text><text x="2.004" y="1.67" class="h">&lt;jomiel&gt;</text><text x="11.022" y="1.67" class="h">awaiting</text><text x="20.04" y="1.67" class="h">for</text><text x="24.048" y="1.67" class="h">a</text><text x="26.052" y="1.67" class="h">response...</text></symbol><symbol id="7"><text y="1.67" class="i">⠙</text><text x="2.004" y="1.67" class="h">&lt;jomiel&gt;</text><text x="11.022" y="1.67" class="h">awaiting</text><text x="20.04" y="1.67" class="h">for</text><text x="24.048" y="1.67" class="h">a</text><text x="26.052" y="1.67" class="h">response...</text></symbol><symbol id="8"><text y="1.67" class="i">⠹</text><text x="2.004" y="1.67" class="h">&lt;jomiel&gt;</text><text x="11.022" y="1.67" class="h">awaiting</text><text x="20.04" y="1.67" class="h">for</text><text x="24.048" y="1.67" class="h">a</text><text x="26.052" y="1.67" class="h">response...</text></symbol><symbol id="9"><text y="1.67" class="i">⠸</text><text x="2.004" y="1.67" class="h">&lt;jomiel&gt;</text><text x="11.022" y="1.67" class="h">awaiting</text><text x="20.04" y="1.67" class="h">for</text><text x="24.048" y="1.67" class="h">a</text><text x="26.052" y="1.67" class="h">response...</text></symbol><symbol id="10"><text y="1.67" class="i">⠼</text><text x="2.004" y="1.67" class="h">&lt;jomiel&gt;</text><text x="11.022" y="1.67" class="h">awaiting</text><text x="20.04" y="1.67" class="h">for</text><text x="24.048" y="1.67" class="h">a</text><text x="26.052" y="1.67" class="h">response...</text></symbol><symbol id="11"><text y="1.67" class="i">⠴</text><text x="2.004" y="1.67" class="h">&lt;jomiel&gt;</text><text x="11.022" y="1.67" class="h">awaiting</text><text x="20.04" y="1.67" class="h">for</text><text x="24.048" y="1.67" class="h">a</text><text x="26.052" y="1.67" class="h">response...</text></symbol><symbol id="12"><text y="1.67" class="i">⠦</text><text x="2.004" y="1.67" class="h">&lt;jomiel&gt;</text><text x="11.022" y="1.67" class="h">awaiting</text><text x="20.04" y="1.67" class="h">for</text><text x="24.048" y="1.67" class="h">a</text><text x="26.052" y="1.67" class="h">response...</text></symbol><symbol id="13"><text y="1.67" class="i">⠧</text><text x="2.004" y="1.67" class="h">&lt;jomiel&gt;</text><text x="11.022" y="1.67" class="h">awaiting</text><text x="20.04" y="1.67" class="h">for</text><text x="24.048" y="1.67" class="h">a</text><text x="26.052" y="1.67" class="h">response...</text></symbol><symbol id="14"><text y="1.67" class="i">⠇</text><text x="2.004" y="1.67" class="h">&lt;jomiel&gt;</text><text x="11.022" y="1.67" class="h">awaiting</text><text x="20.04" y="1.67" class="h">for</text><text x="24.048" y="1.67" class="h">a</text><text x="26.052" y="1.67" class="h">response...</text></symbol><symbol id="15"><text y="1.67" class="i">⠏</text><text x="2.004" y="1.67" class="h">&lt;jomiel&gt;</text><text x="11.022" y="1.67" class="h">awaiting</text><text x="20.04" y="1.67" class="h">for</text><text x="24.048" y="1.67" class="h">a</text><text x="26.052" y="1.67" class="h">response...</text></symbol><symbol id="16"><text y="1.67" class="h">21:52:02</text><text x="9.018" y="1.67" class="j">INFO</text><text x="14.028" y="1.67" class="h">-</text><text x="16.032" y="1.67" class="h">extracting</text><text x="27.054" y="1.67" class="h">the</text><text x="31.062" y="1.67" class="h">stream</text></symbol><symbol id="17"><text y="1.67" class="h">21:52:02</text><text x="9.018" y="1.67" class="j">INFO</text><text x="14.028" y="1.67" class="h">-</text><text x="18.036" y="1.67" class="h">from:</text><text x="24.048" y="1.67" class="h">youtu.be/XQMVOoPZLYs</text></symbol><symbol id="18"><text y="1.67" class="h">21:52:02</text><text x="9.018" y="1.67" class="j">INFO</text><text x="14.028" y="1.67" class="h">-</text><text x="18.036" y="1.67" class="h">path:</text><text x="24.048" y="1.67" class="h">.</text></symbol><symbol id="19"><text y="1.67" class="h">21:52:02</text><text x="9.018" y="1.67" class="j">INFO</text><text x="14.028" y="1.67" class="h">-</text><text x="20.04" y="1.67" class="h">to:</text><text x="24.048" y="1.67" class="h">Is</text><text x="27.054" y="1.67" class="h">your</text><text x="32.064" y="1.67" class="h">memory</text><text x="39.078" y="1.67" class="h">leaking</text><text x="47.094" y="1.67" class="h">(XQMVOoPZLYs).mp4</text></symbol><symbol id="20"><text y="1.67" class="h">21:52:02</text><text x="9.018" y="1.67" class="j">INFO</text><text x="14.028" y="1.67" class="h">-</text><text x="18.036" y="1.67" class="h">start</text><text x="24.048" y="1.67" class="h">at:</text><text x="28.056" y="1.67" class="h">0.0</text><text x="32.064" y="1.67" class="h">B,</text><text x="36.072" y="1.67" class="h">end</text><text x="40.08" y="1.67" class="h">at:</text><text x="44.088" y="1.67" class="h">141.3</text><text x="50.1" y="1.67" class="h">kB,</text><text x="55.11" y="1.67" class="h">total:</text><text x="62.124" y="1.67" class="h">141.3</text><text x="68.136" y="1.67" class="h">kB</text></symbol><symbol id="21"><text y="1.67" class="i">⠦</text><text x="2.004" y="1.67" class="i">upload</text><text x="8.016" y="1.67" class="h">:</text><text x="10.02" y="1.67" class="h">100%</text></symbol><symbol id="22"><text y="1.67" class="i">⠧</text><text x="2.004" y="1.67" class="i">upload</text><text x="8.016" y="1.67" class="h">:</text><text x="10.02" y="1.67" class="h">100%</text></symbol><symbol id="23"><text y="1.67" class="i">⠇</text><text x="2.004" y="1.67" class="i">upload</text><text x="8.016" y="1.67" class="h">:</text><text x="10.02" y="1.67" class="h">100%</text></symbol><symbol id="24"><text y="1.67" class="i">⠏</text><text x="2.004" y="1.67" class="i">upload</text><text x="8.016" y="1.67" class="h">:</text><text x="10.02" y="1.67" class="h">100%</text></symbol><symbol id="25"><text y="1.67" class="h">|</text><text x="28.056" y="1.67" class="h">0%</text><text x="31.062" y="1.67" class="h">||</text><text x="34.068" y="1.67" class="h">0/0 | 0s</text><text x="43.086" y="1.67" class="h">|</text><text x="45.09" y="1.67" class="h">0/s</text></symbol><symbol id="26"><text y="1.67" class="h">|</text><text x="2.004" y="1.67" class="h">■■■■■■■■■■■■■■■■■</text><text x="28.056" y="1.67" class="h">69%</text><text x="32.064" y="1.67" class="h">||</text><text x="35.07" y="1.67" class="h">98.3</text><text x="40.08" y="1.67" class="h">kB/141.3</text><text x="49.098" y="1.67" class="h">kB | 1s</text><text x="57.114" y="1.67" class="h">|</text><text x="59.118" y="1.67" class="h">168</text><text x="63.126" y="1.67" class="h">kbit/s</text></symbol><symbol id="27"><text y="1.67" class="h">|</text><text x="2.004" y="1.67" class="h">■■■■■■■■■■■■■■■■■■■■■■■■■</text><text x="28.056" y="1.67" class="h">100%</text><text x="33.066" y="1.67" class="h">||</text><text x="36.072" y="1.67" class="h">141.3</text><text x="42.084" y="1.67" class="h">kB/141.3</text><text x="51.102" y="1.67" class="h">kB | 0s</text><text x="59.118" y="1.67" class="h">|</text><text x="61.122" y="1.67" class="h">126</text><text x="65.13" y="1.67" class="h">kbit/s</text></symbol><symbol id="28"><text y="1.67" class="h">21:52:06</text><text x="9.018" y="1.67" class="j">INFO</text><text x="14.028" y="1.67" class="h">-</text><text x="16.032" y="1.67" class="h">download</text><text x="25.05" y="1.67" class="h">complete</text></symbol><symbol id="a"><path fill="transparent" d="M0 0h80v14H0z"/></symbol><symbol id="b"><path fill="#6f7683" d="M0 0h1.102v2.171H0z"/></symbol></defs><path class="a" d="M0 0h80v30.394H0z"/><g style="animation-duration:14.268868s;animation-iteration-count:infinite;animation-name:m;animation-timing-function:steps(1,end)"><svg width="14080"><svg><use xlink:href="#a"/><use xlink:href="#b" x="-.004"/></svg><svg x="80"><use xlink:href="#a"/><use xlink:href="#b" x="5.996"/><use xlink:href="#1"/></svg><svg x="160"><use xlink:href="#a"/><use xlink:href="#b" x="6.996"/><text y="1.67" class="f">~</text><text x="2.004" y="1.67" class="f">//</text><text x="4.008" y="1.67" class="g">&gt;</text><text x="6.012" y="1.67" class="h">j</text></svg><svg x="240"><use xlink:href="#a"/><use xlink:href="#b" x="7.996"/><text y="1.67" class="f">~</text><text x="2.004" y="1.67" class="f">//</text><text x="4.008" y="1.67" class="g">&gt;</text><text x="6.012" y="1.67" class="h">ji</text></svg><svg x="320"><use xlink:href="#a"/><use xlink:href="#b" x="8.996"/><text y="1.67" class="f">~</text><text x="2.004" y="1.67" class="f">//</text><text x="4.008" y="1.67" class="g">&gt;</text><text x="6.012" y="1.67" class="h">jin</text></svg><svg x="400"><use xlink:href="#a"/><use xlink:href="#b" x="9.996"/><text y="1.67" class="f">~</text><text x="2.004" y="1.67" class="f">//</text><text x="4.008" y="1.67" class="g">&gt;</text><text x="6.012" y="1.67" class="h">jinq</text></svg><svg x="480"><use xlink:href="#a"/><use xlink:href="#b" x="10.996"/><use xlink:href="#2"/></svg><svg x="560"><use xlink:href="#a"/><use xlink:href="#b" x="11.996"/><use xlink:href="#2"/></svg><svg x="640"><use xlink:href="#a"/><use xlink:href="#b" x="39.996"/><use xlink:href="#3"/></svg><svg x="720"><use xlink:href="#a"/><use xlink:href="#b" x="40.996"/><use xlink:href="#3"/></svg><svg x="800"><use xlink:href="#a"/><use xlink:href="#b" x="41.996"/><text y="1.67" class="f">~</text><text x="2.004" y="1.67" class="f">//</text><text x="4.008" y="1.67" class="g">&gt;</text><text x="6.012" y="1.67" class="h">jinqr</text><text x="12.024" y="1.67" class="h">https://youtu.be/XQMVOoPZLYs</text><text x="41.082" y="1.67" class="h">-</text></svg><svg x="880"><use xlink:href="#a"/><use xlink:href="#b" x="42.996"/><use xlink:href="#4"/></svg><svg x="960"><use xlink:href="#a"/><use xlink:href="#b" x="43.996"/><use xlink:href="#4"/></svg><svg x="1040"><use xlink:href="#a"/><use xlink:href="#b" x="56.996"/><use xlink:href="#5"/></svg><svg x="1120"><use xlink:href="#a"/><use xlink:href="#b" x="-.004" y="2.146"/><use xlink:href="#5"/></svg><svg x="1200"><use xlink:href="#a"/><use xlink:href="#5"/></svg><svg x="1280"><use xlink:href="#a"/><use xlink:href="#5"/></svg><svg x="1360"><use xlink:href="#a"/><use xlink:href="#5"/><use xlink:href="#6" y="2.171"/></svg><svg x="1440"><use xlink:href="#a"/><use xlink:href="#5"/><use xlink:href="#6" y="2.171"/></svg><svg x="1520"><use xlink:href="#a"/><use xlink:href="#5"/></svg><svg x="1600"><use xlink:href="#a"/><use xlink:href="#5"/><use xlink:href="#7" y="2.171"/></svg><svg x="1680"><use xlink:href="#a"/><use xlink:href="#5"/><use xlink:href="#7" y="2.171"/></svg><svg x="1760"><use xlink:href="#a"/><use xlink:href="#5"/><use xlink:href="#8" y="2.171"/></svg><svg x="1840"><use xlink:href="#a"/><use xlink:href="#5"/></svg><svg x="1920"><use xlink:href="#a"/><use xlink:href="#5"/><use xlink:href="#9" y="2.171"/></svg><svg x="2000"><use xlink:href="#a"/><use xlink:href="#5"/><use xlink:href="#9" y="2.171"/></svg><svg x="2080"><use xlink:href="#a"/><use xlink:href="#5"/></svg><svg x="2160"><use xlink:href="#a"/><use xlink:href="#5"/><use xlink:href="#10" y="2.171"/></svg><svg x="2240"><use xlink:href="#a"/><use xlink:href="#5"/><use xlink:href="#10" y="2.171"/></svg><svg x="2320"><use xlink:href="#a"/><use xlink:href="#5"/></svg><svg x="2400"><use xlink:href="#a"/><use xlink:href="#5"/><use xlink:href="#11" y="2.171"/></svg><svg x="2480"><use xlink:href="#a"/><use xlink:href="#5"/></svg><svg x="2560"><use xlink:href="#a"/><use xlink:href="#5"/><use xlink:href="#12" y="2.171"/></svg><svg x="2640"><use xlink:href="#a"/><use xlink:href="#5"/><use xlink:href="#12" y="2.171"/></svg><svg x="2720"><use xlink:href="#a"/><use xlink:href="#5"/></svg><svg x="2800"><use xlink:href="#a"/><use xlink:href="#5"/><use xlink:href="#13" y="2.171"/></svg><svg x="2880"><use xlink:href="#a"/><use xlink:href="#5"/></svg><svg x="2960"><use xlink:href="#a"/><use xlink:href="#5"/><use xlink:href="#14" y="2.171"/></svg><svg x="3040"><use xlink:href="#a"/><use xlink:href="#5"/><use xlink:href="#14" y="2.171"/></svg><svg x="3120"><use xlink:href="#a"/><use xlink:href="#5"/></svg><svg x="3200"><use xlink:href="#a"/><use xlink:href="#5"/><use xlink:href="#15" y="2.171"/></svg><svg x="3280"><use xlink:href="#a"/><use xlink:href="#5"/><use xlink:href="#15" y="2.171"/></svg><svg x="3360"><use xlink:href="#a"/><use xlink:href="#5"/></svg><svg x="3440"><use xlink:href="#a"/><use xlink:href="#5"/><use xlink:href="#6" y="2.171"/></svg><svg x="3520"><use xlink:href="#a"/><use xlink:href="#5"/></svg><svg x="3600"><use xlink:href="#a"/><use xlink:href="#5"/><use xlink:href="#7" y="2.171"/></svg><svg x="3680"><use xlink:href="#a"/><use xlink:href="#5"/></svg><svg x="3760"><use xlink:href="#a"/><use xlink:href="#5"/><use xlink:href="#8" y="2.171"/></svg><svg x="3840"><use xlink:href="#a"/><use xlink:href="#5"/></svg><svg x="3920"><use xlink:href="#a"/><use xlink:href="#5"/><use xlink:href="#9" y="2.171"/></svg><svg x="4000"><use xlink:href="#a"/><use xlink:href="#5"/></svg><svg x="4080"><use xlink:href="#a"/><use xlink:href="#5"/><use xlink:href="#10" y="2.171"/></svg><svg x="4160"><use xlink:href="#a"/><use xlink:href="#5"/><use xlink:href="#11" y="2.171"/></svg><svg x="4240"><use xlink:href="#a"/><use xlink:href="#5"/><use xlink:href="#12" y="2.171"/></svg><svg x="4320"><use xlink:href="#a"/><use xlink:href="#5"/></svg><svg x="4400"><use xlink:href="#a"/><use xlink:href="#5"/><use xlink:href="#13" y="2.171"/></svg><svg x="4480"><use xlink:href="#a"/><use xlink:href="#5"/></svg><svg x="4560"><use xlink:href="#a"/><use xlink:href="#5"/><use xlink:href="#14" y="2.171"/></svg><svg x="4640"><use xlink:href="#a"/><use xlink:href="#5"/></svg><svg x="4720"><use xlink:href="#a"/><use xlink:href="#5"/><use xlink:href="#15" y="2.171"/></svg><svg x="4800"><use xlink:href="#a"/><use xlink:href="#5"/></svg><svg x="4880"><use xlink:href="#a"/><use xlink:href="#5"/><use xlink:href="#6" y="2.171"/></svg><svg x="4960"><use xlink:href="#a"/><use xlink:href="#5"/></svg><svg x="5040"><use xlink:href="#a"/><use xlink:href="#5"/><use xlink:href="#7" y="2.171"/></svg><svg x="5120"><use xlink:href="#a"/><use xlink:href="#5"/></svg><svg x="5200"><use xlink:href="#a"/><use xlink:href="#5"/><use xlink:href="#8" y="2.171"/></svg><svg x="5280"><use xlink:href="#a"/><use xlink:href="#5"/></svg><svg x="5360"><use xlink:href="#a"/><use xlink:href="#5"/><use xlink:href="#9" y="2.171"/></svg><svg x="5440"><use xlink:href="#a"/><use xlink:href="#5"/></svg><svg x="5520"><use xlink:href="#a"/><use xlink:href="#5"/><use xlink:href="#10" y="2.171"/></svg><svg x="5600"><use xlink:href="#a"/><use xlink:href="#5"/></svg><svg x="5680"><use xlink:href="#a"/><use xlink:href="#5"/><use xlink:href="#11" y="2.171"/></svg><svg x="5760"><use xlink:href="#a"/><use xlink:href="#5"/></svg><svg x="5840"><use xlink:href="#a"/><use xlink:href="#5"/><use xlink:href="#12" y="2.171"/></svg><svg x="5920"><use xlink:href="#a"/><use xlink:href="#5"/></svg><svg x="6000"><use xlink:href="#a"/><use xlink:href="#5"/><use xlink:href="#13" y="2.171"/></svg><svg x="6080"><use xlink:href="#a"/><use xlink:href="#5"/></svg><svg x="6160"><use xlink:href="#a"/><use xlink:href="#5"/><use xlink:href="#14" y="2.171"/></svg><svg x="6240"><use xlink:href="#a"/><use xlink:href="#5"/></svg><svg x="6320"><use xlink:href="#a"/><use xlink:href="#5"/><use xlink:href="#15" y="2.171"/></svg><svg x="6400"><use xlink:href="#a"/><use xlink:href="#5"/></svg><svg x="6480"><use xlink:href="#a"/><use xlink:href="#5"/><use xlink:href="#6" y="2.171"/></svg><svg x="6560"><use xlink:href="#a"/><use xlink:href="#5"/><use xlink:href="#7" y="2.171"/></svg><svg x="6640"><use xlink:href="#a"/><use xlink:href="#5"/><use xlink:href="#8" y="2.171"/></svg><svg x="6720"><use xlink:href="#a"/><use xlink:href="#5"/></svg><svg x="6800"><use xlink:href="#a"/><use xlink:href="#5"/><use xlink:href="#9" y="2.171"/></svg><svg x="6880"><use xlink:href="#a"/><use xlink:href="#5"/></svg><svg x="6960"><use xlink:href="#a"/><use xlink:href="#5"/><use xlink:href="#10" y="2.171"/></svg><svg x="7040"><use xlink:href="#a"/><use xlink:href="#5"/></svg><svg x="7120"><use xlink:href="#a"/><use xlink:href="#5"/><use xlink:href="#11" y="2.171"/></svg><svg x="7200"><use xlink:href="#a"/><use xlink:href="#5"/><use xlink:href="#12" y="2.171"/></svg><svg x="7280"><use xlink:href="#a"/><use xlink:href="#5"/></svg><svg x="7360"><use xlink:href="#a"/><use xlink:href="#5"/><use xlink:href="#13" y="2.171"/></svg><svg x="7440"><use xlink:href="#a"/><use xlink:href="#5"/></svg><svg x="7520"><use xlink:href="#a"/><use xlink:href="#5"/><use xlink:href="#14" y="2.171"/></svg><svg x="7600"><use xlink:href="#a"/><use xlink:href="#5"/><use xlink:href="#15" y="2.171"/></svg><svg x="7680"><use xlink:href="#a"/><use xlink:href="#5"/><use xlink:href="#6" y="2.171"/></svg><svg x="7760"><use xlink:href="#a"/><use xlink:href="#5"/><use xlink:href="#7" y="2.171"/></svg><svg x="7840"><use xlink:href="#a"/><use xlink:href="#5"/><use xlink:href="#7" y="2.171"/></svg><svg x="7920"><use xlink:href="#a"/><use xlink:href="#5"/><use xlink:href="#8" y="2.171"/></svg><svg x="8000"><use xlink:href="#a"/><use xlink:href="#5"/></svg><svg x="8080"><use xlink:href="#a"/><use xlink:href="#5"/><use xlink:href="#9" y="2.171"/></svg><svg x="8160"><use xlink:href="#a"/><use xlink:href="#5"/></svg><svg x="8240"><use xlink:href="#a"/><use xlink:href="#5"/><use xlink:href="#10" y="2.171"/></svg><svg x="8320"><use xlink:href="#a"/><use xlink:href="#5"/></svg><svg x="8400"><use xlink:href="#a"/><use xlink:href="#5"/><use xlink:href="#11" y="2.171"/></svg><svg x="8480"><use xlink:href="#a"/><use xlink:href="#5"/></svg><svg x="8560"><use xlink:href="#a"/><use xlink:href="#5"/><use xlink:href="#12" y="2.171"/></svg><svg x="8640"><use xlink:href="#a"/><use xlink:href="#5"/></svg><svg x="8720"><use xlink:href="#a"/><use xlink:href="#5"/><use xlink:href="#13" y="2.171"/></svg><svg x="8800"><use xlink:href="#a"/><use xlink:href="#5"/></svg><svg x="8880"><use xlink:href="#a"/><use xlink:href="#5"/><use xlink:href="#14" y="2.171"/></svg><svg x="8960"><use xlink:href="#a"/><use xlink:href="#5"/></svg><svg x="9040"><use xlink:href="#a"/><use xlink:href="#5"/><use xlink:href="#15" y="2.171"/></svg><svg x="9120"><use xlink:href="#a"/><use xlink:href="#5"/><use xlink:href="#6" y="2.171"/></svg><svg x="9200"><use xlink:href="#a"/><use xlink:href="#5"/><use xlink:href="#7" y="2.171"/></svg><svg x="9280"><use xlink:href="#a"/><use xlink:href="#5"/><use xlink:href="#8" y="2.171"/></svg><svg x="9360"><use xlink:href="#a"/><use xlink:href="#5"/></svg><svg x="9440"><use xlink:href="#a"/><use xlink:href="#b" x="-.004" y="2.146"/><use xlink:href="#5"/></svg><svg x="9520"><use xlink:href="#a"/><use xlink:href="#b" x="-.004" y="4.317"/><use xlink:href="#5"/><use xlink:href="#16" y="2.171"/></svg><svg x="9600"><use xlink:href="#a"/><use xlink:href="#b" x="-.004" y="6.488"/><use xlink:href="#5"/><use xlink:href="#16" y="2.171"/><use xlink:href="#17" y="4.342"/></svg><svg x="9680"><use xlink:href="#a"/><use xlink:href="#b" x="-.004" y="8.659"/><use xlink:href="#5"/><use xlink:href="#16" y="2.171"/><use xlink:href="#17" y="4.342"/><use xlink:href="#18" y="6.513"/></svg><svg x="9760"><use xlink:href="#a"/><use xlink:href="#b" x="-.004" y="10.83"/><use xlink:href="#5"/><use xlink:href="#16" y="2.171"/><use xlink:href="#17" y="4.342"/><use xlink:href="#18" y="6.513"/><use xlink:href="#19" y="8.684"/></svg><svg x="9840"><use xlink:href="#a"/><use xlink:href="#b" x="-.004" y="13.001"/><use xlink:href="#5"/><use xlink:href="#16" y="2.171"/><use xlink:href="#17" y="4.342"/><use xlink:href="#18" y="6.513"/><use xlink:href="#19" y="8.684"/><use xlink:href="#20" y="10.855"/></svg><svg x="9920"><use xlink:href="#a"/><use xlink:href="#5"/><use xlink:href="#16" y="2.171"/><use xlink:href="#17" y="4.342"/><use xlink:href="#18" y="6.513"/><use xlink:href="#19" y="8.684"/><use xlink:href="#20" y="10.855"/></svg><svg x="10000"><use xlink:href="#a"/><use xlink:href="#5"/><use xlink:href="#16" y="2.171"/><use xlink:href="#17" y="4.342"/><use xlink:href="#18" y="6.513"/><use xlink:href="#19" y="8.684"/><use xlink:href="#20" y="10.855"/></svg><svg x="10080"><use xlink:href="#a"/><use xlink:href="#5"/><use xlink:href="#16" y="2.171"/><use xlink:href="#17" y="4.342"/><use xlink:href="#18" y="6.513"/><use xlink:href="#19" y="8.684"/><use xlink:href="#20" y="10.855"/><text y="14.696" class="i">⠋</text></svg><svg x="10160"><use xlink:href="#a"/><use xlink:href="#5"/><use xlink:href="#16" y="2.171"/><use xlink:href="#17" y="4.342"/><use xlink:href="#18" y="6.513"/><use xlink:href="#19" y="8.684"/><use xlink:href="#20" y="10.855"/></svg><svg x="10240"><use xlink:href="#a"/><use xlink:href="#5"/><use xlink:href="#16" y="2.171"/><use xlink:href="#17" y="4.342"/><use xlink:href="#18" y="6.513"/><use xlink:href="#19" y="8.684"/><use xlink:href="#20" y="10.855"/><text y="14.696" class="i">⠙</text><text x="2.004" y="14.696" class="i">upload</text><text x="8.016" y="14.696" class="h">:</text><text x="10.02" y="14.696" class="h">0%</text></svg><svg x="10320"><use xlink:href="#a"/><use xlink:href="#5"/><use xlink:href="#16" y="2.171"/><use xlink:href="#17" y="4.342"/><use xlink:href="#18" y="6.513"/><use xlink:href="#19" y="8.684"/><use xlink:href="#20" y="10.855"/><text y="14.696" class="i">⠹</text><text x="2.004" y="14.696" class="i">upload</text><text x="8.016" y="14.696" class="h">:</text><text x="10.02" y="14.696" class="h">0%</text></svg><svg x="10400"><use xlink:href="#a"/><use xlink:href="#5"/><use xlink:href="#16" y="2.171"/><use xlink:href="#17" y="4.342"/><use xlink:href="#18" y="6.513"/><use xlink:href="#19" y="8.684"/><use xlink:href="#20" y="10.855"/></svg><svg x="10480"><use xlink:href="#a"/><use xlink:href="#5"/><use xlink:href="#16" y="2.171"/><use xlink:href="#17" y="4.342"/><use xlink:href="#18" y="6.513"/><use xlink:href="#19" y="8.684"/><use xlink:href="#20" y="10.855"/><text y="14.696" class="i">⠸</text><text x="2.004" y="14.696" class="i">upload</text><text x="8.016" y="14.696" class="h">:</text><text x="10.02" y="14.696" class="h">0%</text></svg><svg x="10560"><use xlink:href="#a"/><use xlink:href="#5"/><use xlink:href="#16" y="2.171"/><use xlink:href="#17" y="4.342"/><use xlink:href="#18" y="6.513"/><use xlink:href="#19" y="8.684"/><use xlink:href="#20" y="10.855"/><text y="14.696" class="i">⠼</text><text x="2.004" y="14.696" class="i">upload</text><text x="8.016" y="14.696" class="h">:</text><text x="10.02" y="14.696" class="h">0%</text></svg><svg x="10640"><use xlink:href="#a"/><use xlink:href="#5"/><use xlink:href="#16" y="2.171"/><use xlink:href="#17" y="4.342"/><use xlink:href="#18" y="6.513"/><use xlink:href="#19" y="8.684"/><use xlink:href="#20" y="10.855"/><text y="14.696" class="i">⠴</text><text x="2.004" y="14.696" class="i">upload</text><text x="8.016" y="14.696" class="h">:</text><text x="10.02" y="14.696" class="h">0%</text></svg><svg x="10720"><use xlink:href="#a"/><use xlink:href="#5"/><use xlink:href="#16" y="2.171"/><use xlink:href="#17" y="4.342"/><use xlink:href="#18" y="6.513"/><use xlink:href="#19" y="8.684"/><use xlink:href="#20" y="10.855"/><use xlink:href="#21" y="13.026"/></svg><svg x="10800"><use xlink:href="#a"/><use xlink:href="#5"/><use xlink:href="#16" y="2.171"/><use xlink:href="#17" y="4.342"/><use xlink:href="#18" y="6.513"/><use xlink:href="#19" y="8.684"/><use xlink:href="#20" y="10.855"/></svg><svg x="10880"><use xlink:href="#a"/><use xlink:href="#5"/><use xlink:href="#16" y="2.171"/><use xlink:href="#17" y="4.342"/><use xlink:href="#18" y="6.513"/><use xlink:href="#19" y="8.684"/><use xlink:href="#20" y="10.855"/><use xlink:href="#22" y="13.026"/></svg><svg x="10960"><use xlink:href="#a"/><use xlink:href="#5"/><use xlink:href="#16" y="2.171"/><use xlink:href="#17" y="4.342"/><use xlink:href="#18" y="6.513"/><use xlink:href="#19" y="8.684"/><use xlink:href="#20" y="10.855"/><use xlink:href="#23" y="13.026"/></svg><svg x="11040"><use xlink:href="#a"/><use xlink:href="#5"/><use xlink:href="#16" y="2.171"/><use xlink:href="#17" y="4.342"/><use xlink:href="#18" y="6.513"/><use xlink:href="#19" y="8.684"/><use xlink:href="#20" y="10.855"/><use xlink:href="#24" y="13.026"/></svg><svg x="11120"><use xlink:href="#a"/><use xlink:href="#5"/><use xlink:href="#16" y="2.171"/><use xlink:href="#17" y="4.342"/><use xlink:href="#18" y="6.513"/><use xlink:href="#19" y="8.684"/><use xlink:href="#20" y="10.855"/></svg><svg x="11200"><use xlink:href="#a"/><use xlink:href="#5"/><use xlink:href="#16" y="2.171"/><use xlink:href="#17" y="4.342"/><use xlink:href="#18" y="6.513"/><use xlink:href="#19" y="8.684"/><use xlink:href="#20" y="10.855"/><text y="14.696" class="i">⠋</text><text x="2.004" y="14.696" class="i">upload</text><text x="8.016" y="14.696" class="h">:</text><text x="10.02" y="14.696" class="h">100%</text></svg><svg x="11280"><use xlink:href="#a"/><use xlink:href="#5"/><use xlink:href="#16" y="2.171"/><use xlink:href="#17" y="4.342"/><use xlink:href="#18" y="6.513"/><use xlink:href="#19" y="8.684"/><use xlink:href="#20" y="10.855"/><text y="14.696" class="i">⠙</text><text x="2.004" y="14.696" class="i">upload</text><text x="8.016" y="14.696" class="h">:</text><text x="10.02" y="14.696" class="h">100%</text></svg><svg x="11360"><use xlink:href="#a"/><use xlink:href="#5"/><use xlink:href="#16" y="2.171"/><use xlink:href="#17" y="4.342"/><use xlink:href="#18" y="6.513"/><use xlink:href="#19" y="8.684"/><use xlink:href="#20" y="10.855"/><text y="14.696" class="i">⠹</text><text x="2.004" y="14.696" class="i">upload</text><text x="8.016" y="14.696" class="h">:</text><text x="10.02" y="14.696" class="h">100%</text></svg><svg x="11440"><use xlink:href="#a"/><use xlink:href="#5"/><use xlink:href="#16" y="2.171"/><use xlink:href="#17" y="4.342"/><use xlink:href="#18" y="6.513"/><use xlink:href="#19" y="8.684"/><use xlink:href="#20" y="10.855"/><text y="14.696" class="i">⠸</text><text x="2.004" y="14.696" class="i">upload</text><text x="8.016" y="14.696" class="h">:</text><text x="10.02" y="14.696" class="h">100%</text></svg><svg x="11520"><use xlink:href="#a"/><use xlink:href="#5"/><use xlink:href="#16" y="2.171"/><use xlink:href="#17" y="4.342"/><use xlink:href="#18" y="6.513"/><use xlink:href="#19" y="8.684"/><use xlink:href="#20" y="10.855"/><text y="14.696" class="i">⠼</text><text x="2.004" y="14.696" class="i">upload</text><text x="8.016" y="14.696" class="h">:</text><text x="10.02" y="14.696" class="h">100%</text></svg><svg x="11600"><use xlink:href="#a"/><use xlink:href="#5"/><use xlink:href="#16" y="2.171"/><use xlink:href="#17" y="4.342"/><use xlink:href="#18" y="6.513"/><use xlink:href="#19" y="8.684"/><use xlink:href="#20" y="10.855"/></svg><svg x="11680"><use xlink:href="#a"/><use xlink:href="#5"/><use xlink:href="#16" y="2.171"/><use xlink:href="#17" y="4.342"/><use xlink:href="#18" y="6.513"/><use xlink:href="#19" y="8.684"/><use xlink:href="#20" y="10.855"/><text y="14.696" class="i">⠴</text><text x="2.004" y="14.696" class="i">upload</text><text x="8.016" y="14.696" class="h">:</text><text x="10.02" y="14.696" class="h">100%</text></svg><svg x="11760"><use xlink:href="#a"/><use xlink:href="#5"/><use xlink:href="#16" y="2.171"/><use xlink:href="#17" y="4.342"/><use xlink:href="#18" y="6.513"/><use xlink:href="#19" y="8.684"/><use xlink:href="#20" y="10.855"/></svg><svg x="11840"><use xlink:href="#a"/><use xlink:href="#5"/><use xlink:href="#16" y="2.171"/><use xlink:href="#17" y="4.342"/><use xlink:href="#18" y="6.513"/><use xlink:href="#19" y="8.684"/><use xlink:href="#20" y="10.855"/><use xlink:href="#21" y="13.026"/></svg><svg x="11920"><use xlink:href="#a"/><use xlink:href="#5"/><use xlink:href="#16" y="2.171"/><use xlink:href="#17" y="4.342"/><use xlink:href="#18" y="6.513"/><use xlink:href="#19" y="8.684"/><use xlink:href="#20" y="10.855"/></svg><svg x="12000"><use xlink:href="#a"/><use xlink:href="#5"/><use xlink:href="#16" y="2.171"/><use xlink:href="#17" y="4.342"/><use xlink:href="#18" y="6.513"/><use xlink:href="#19" y="8.684"/><use xlink:href="#20" y="10.855"/><use xlink:href="#22" y="13.026"/></svg><svg x="12080"><use xlink:href="#a"/><use xlink:href="#5"/><use xlink:href="#16" y="2.171"/><use xlink:href="#17" y="4.342"/><use xlink:href="#18" y="6.513"/><use xlink:href="#19" y="8.684"/><use xlink:href="#20" y="10.855"/></svg><svg x="12160"><use xlink:href="#a"/><use xlink:href="#5"/><use xlink:href="#16" y="2.171"/><use xlink:href="#17" y="4.342"/><use xlink:href="#18" y="6.513"/><use xlink:href="#19" y="8.684"/><use xlink:href="#20" y="10.855"/><use xlink:href="#23" y="13.026"/></svg><svg x="12240"><use xlink:href="#a"/><use xlink:href="#5"/><use xlink:href="#16" y="2.171"/><use xlink:href="#17" y="4.342"/><use xlink:href="#18" y="6.513"/><use xlink:href="#19" y="8.684"/><use xlink:href="#20" y="10.855"/></svg><svg x="12320"><use xlink:href="#a"/><use xlink:href="#5"/><use xlink:href="#16" y="2.171"/><use xlink:href="#17" y="4.342"/><use xlink:href="#18" y="6.513"/><use xlink:href="#19" y="8.684"/><use xlink:href="#20" y="10.855"/><use xlink:href="#24" y="13.026"/></svg><svg x="12400"><use xlink:href="#a"/><use xlink:href="#b" x="-.004" y="13.001"/><use xlink:href="#5"/><use xlink:href="#16" y="2.171"/><use xlink:href="#17" y="4.342"/><use xlink:href="#18" y="6.513"/><use xlink:href="#19" y="8.684"/><use xlink:href="#20" y="10.855"/></svg><svg x="12480"><use xlink:href="#a"/><use xlink:href="#b" x="-.004" y="13.001"/><use xlink:href="#5"/><use xlink:href="#16" y="2.171"/><use xlink:href="#17" y="4.342"/><use xlink:href="#18" y="6.513"/><use xlink:href="#19" y="8.684"/><use xlink:href="#20" y="10.855"/></svg><svg x="12560"><use xlink:href="#a"/><use xlink:href="#5"/><use xlink:href="#16" y="2.171"/><use xlink:href="#17" y="4.342"/><use xlink:href="#18" y="6.513"/><use xlink:href="#19" y="8.684"/><use xlink:href="#20" y="10.855"/></svg><svg x="12640"><use xlink:href="#a"/><use xlink:href="#5"/><use xlink:href="#16" y="2.171"/><use xlink:href="#17" y="4.342"/><use xlink:href="#18" y="6.513"/><use xlink:href="#19" y="8.684"/><use xlink:href="#20" y="10.855"/></svg><svg x="12720"><use xlink:href="#a"/><use xlink:href="#5"/><use xlink:href="#16" y="2.171"/><use xlink:href="#17" y="4.342"/><use xlink:href="#18" y="6.513"/><use xlink:href="#19" y="8.684"/><use xlink:href="#20" y="10.855"/></svg><svg x="12800"><use xlink:href="#a"/><use xlink:href="#5"/><use xlink:href="#16" y="2.171"/><use xlink:href="#17" y="4.342"/><use xlink:href="#18" y="6.513"/><use xlink:href="#19" y="8.684"/><use xlink:href="#20" y="10.855"/><use xlink:href="#25" y="13.026"/></svg><svg x="12880"><use xlink:href="#a"/><use xlink:href="#5"/><use xlink:href="#16" y="2.171"/><use xlink:href="#17" y="4.342"/><use xlink:href="#18" y="6.513"/><use xlink:href="#19" y="8.684"/><use xlink:href="#20" y="10.855"/><use xlink:href="#25" y="13.026"/></svg><svg x="12960"><use xlink:href="#a"/><use xlink:href="#5"/><use xlink:href="#16" y="2.171"/><use xlink:href="#17" y="4.342"/><use xlink:href="#18" y="6.513"/><use xlink:href="#19" y="8.684"/><use xlink:href="#20" y="10.855"/><text y="14.696" class="h">|</text><text x="2.004" y="14.696" class="h">■■■</text><text x="28.056" y="14.696" class="h">11%</text><text x="32.064" y="14.696" class="h">||</text><text x="35.07" y="14.696" class="h">16.4</text><text x="40.08" y="14.696" class="h">kB/141.3</text><text x="49.098" y="14.696" class="h">kB | 1s</text><text x="57.114" y="14.696" class="h">|</text><text x="59.118" y="14.696" class="h">216</text><text x="63.126" y="14.696" class="h">kbit/s</text></svg><svg x="13040"><use xlink:href="#a"/><use xlink:href="#5"/><use xlink:href="#16" y="2.171"/><use xlink:href="#17" y="4.342"/><use xlink:href="#18" y="6.513"/><use xlink:href="#19" y="8.684"/><use xlink:href="#20" y="10.855"/><text y="14.696" class="h">|</text><text x="2.004" y="14.696" class="h">■■■■■■</text><text x="28.056" y="14.696" class="h">23%</text><text x="32.064" y="14.696" class="h">||</text><text x="35.07" y="14.696" class="h">32.8</text><text x="40.08" y="14.696" class="h">kB/141.3</text><text x="49.098" y="14.696" class="h">kB | 2s</text><text x="57.114" y="14.696" class="h">|</text><text x="59.118" y="14.696" class="h">203</text><text x="63.126" y="14.696" class="h">kbit/s</text></svg><svg x="13120"><use xlink:href="#a"/><use xlink:href="#5"/><use xlink:href="#16" y="2.171"/><use xlink:href="#17" y="4.342"/><use xlink:href="#18" y="6.513"/><use xlink:href="#19" y="8.684"/><use xlink:href="#20" y="10.855"/><text y="14.696" class="h">|</text><text x="2.004" y="14.696" class="h">■■■■■■■■■■■■</text><text x="28.056" y="14.696" class="h">46%</text><text x="32.064" y="14.696" class="h">||</text><text x="35.07" y="14.696" class="h">65.5</text><text x="40.08" y="14.696" class="h">kB/141.3</text><text x="49.098" y="14.696" class="h">kB | 1s</text><text x="57.114" y="14.696" class="h">|</text><text x="59.118" y="14.696" class="h">181</text><text x="63.126" y="14.696" class="h">kbit/s</text></svg><svg x="13200"><use xlink:href="#a"/><use xlink:href="#5"/><use xlink:href="#16" y="2.171"/><use xlink:href="#17" y="4.342"/><use xlink:href="#18" y="6.513"/><use xlink:href="#19" y="8.684"/><use xlink:href="#20" y="10.855"/><use xlink:href="#26" y="13.026"/></svg><svg x="13280"><use xlink:href="#a"/><use xlink:href="#5"/><use xlink:href="#16" y="2.171"/><use xlink:href="#17" y="4.342"/><use xlink:href="#18" y="6.513"/><use xlink:href="#19" y="8.684"/><use xlink:href="#20" y="10.855"/><use xlink:href="#26" y="13.026"/></svg><svg x="13360"><use xlink:href="#a"/><use xlink:href="#5"/><use xlink:href="#16" y="2.171"/><use xlink:href="#17" y="4.342"/><use xlink:href="#18" y="6.513"/><use xlink:href="#19" y="8.684"/><use xlink:href="#20" y="10.855"/><text y="14.696" class="h">|</text><text x="2.004" y="14.696" class="h">■■■■■■■■■■■■■■■■■■■■</text><text x="28.056" y="14.696" class="h">81%</text><text x="32.064" y="14.696" class="h">||</text><text x="35.07" y="14.696" class="h">114.7</text><text x="41.082" y="14.696" class="h">kB/141.3</text><text x="50.1" y="14.696" class="h">kB | 1s</text><text x="58.116" y="14.696" class="h">|</text><text x="60.12" y="14.696" class="h">165</text><text x="64.128" y="14.696" class="h">kbit/s</text></svg><svg x="13440"><use xlink:href="#a"/><use xlink:href="#5"/><use xlink:href="#16" y="2.171"/><use xlink:href="#17" y="4.342"/><use xlink:href="#18" y="6.513"/><use xlink:href="#19" y="8.684"/><use xlink:href="#20" y="10.855"/><text y="14.696" class="h">|</text><text x="2.004" y="14.696" class="h">■■■■■■■■■■■■■■■■■■■■■■■</text><text x="28.056" y="14.696" class="h">92%</text><text x="32.064" y="14.696" class="h">||</text><text x="35.07" y="14.696" class="h">131.1</text><text x="41.082" y="14.696" class="h">kB/141.3</text><text x="50.1" y="14.696" class="h">kB | 1s</text><text x="58.116" y="14.696" class="h">|</text><text x="60.12" y="14.696" class="h">159</text><text x="64.128" y="14.696" class="h">kbit/s</text></svg><svg x="13520"><use xlink:href="#a"/><use xlink:href="#5"/><use xlink:href="#16" y="2.171"/><use xlink:href="#17" y="4.342"/><use xlink:href="#18" y="6.513"/><use xlink:href="#19" y="8.684"/><use xlink:href="#20" y="10.855"/><use xlink:href="#27" y="13.026"/></svg><svg x="13600"><use xlink:href="#a"/><use xlink:href="#b" x="70.996" y="13.001"/><use xlink:href="#5"/><use xlink:href="#16" y="2.171"/><use xlink:href="#17" y="4.342"/><use xlink:href="#18" y="6.513"/><use xlink:href="#19" y="8.684"/><use xlink:href="#20" y="10.855"/><use xlink:href="#27" y="13.026"/></svg><svg x="13680"><use xlink:href="#a"/><use xlink:href="#b" x="-.004" y="15.172"/><use xlink:href="#5"/><use xlink:href="#16" y="2.171"/><use xlink:href="#17" y="4.342"/><use xlink:href="#18" y="6.513"/><use xlink:href="#19" y="8.684"/><use xlink:href="#20" y="10.855"/><use xlink:href="#27" y="13.026"/></svg><svg x="13760"><use xlink:href="#a"/><use xlink:href="#b" x="-.004" y="17.343"/><use xlink:href="#5"/><use xlink:href="#16" y="2.171"/><use xlink:href="#17" y="4.342"/><use xlink:href="#18" y="6.513"/><use xlink:href="#19" y="8.684"/><use xlink:href="#20" y="10.855"/><use xlink:href="#27" y="13.026"/><use xlink:href="#28" y="15.197"/></svg><svg x="13840"><use xlink:href="#a"/><use xlink:href="#b" x="-.004" y="17.343"/><use xlink:href="#5"/><use xlink:href="#16" y="2.171"/><use xlink:href="#17" y="4.342"/><use xlink:href="#18" y="6.513"/><use xlink:href="#19" y="8.684"/><use xlink:href="#20" y="10.855"/><use xlink:href="#27" y="13.026"/><use xlink:href="#28" y="15.197"/></svg><svg x="13920"><use xlink:href="#a"/><use xlink:href="#b" x="5.996" y="17.343"/><use xlink:href="#5"/><use xlink:href="#16" y="2.171"/><use xlink:href="#17" y="4.342"/><use xlink:href="#18" y="6.513"/><use xlink:href="#19" y="8.684"/><use xlink:href="#20" y="10.855"/><use xlink:href="#27" y="13.026"/><use xlink:href="#28" y="15.197"/><use xlink:href="#1" y="17.368"/></svg><svg x="14000"><use xlink:href="#a"/><use xlink:href="#b" x="-.004" y="19.514"/><use xlink:href="#5"/><use xlink:href="#16" y="2.171"/><use xlink:href="#17" y="4.342"/><use xlink:href="#18" y="6.513"/><use xlink:href="#19" y="8.684"/><use xlink:href="#20" y="10.855"/><use xlink:href="#27" y="13.026"/><use xlink:href="#28" y="15.197"/><text y="19.038" class="f">~</text><text x="2.004" y="19.038" class="f">//</text><text x="4.008" y="19.038" class="g">&gt;</text><text x="6.012" y="19.038" class="h">exit</text></svg></svg></g></g></svg></svg>